<svg xmlns="http://www.w3.org/2000/svg" viewBox="0 0 250.05 224.97"><title>dining</title><g id="Layer_2" data-name="Layer 2"><g id="Layer_1-2" data-name="Layer 1"><path d="M225.3,79.7c-19,19.3-42.4,28.3-58.6,24l-19.9,20.2,78.5,79.7a12.68,12.68,0,0,1,0,17.7,12.14,12.14,0,0,1-17.4,0l-78.5-79.7L50.9,221.3a12.14,12.14,0,0,1-17.4,0,12.68,12.68,0,0,1,0-17.7L149.4,86c-4.2-16.4,4.7-40.2,23.7-59.4C197.2,2.2,228.4-5.8,242.9,8.9,257.2,23.5,249.4,55.2,225.3,79.7ZM7.2,53.1a25.36,25.36,0,0,1,0-35.4h0L24.6,0,42,17.7l76.8,77.9L84,131Z" fill="#1e22aa"/></g></g></svg>