<svg xmlns="http://www.w3.org/2000/svg" xmlns:xlink="http://www.w3.org/1999/xlink" width="636" height="802" viewBox="0 0 636 802"><defs><path id="a" d="M1277 3443.72c0 174.67-141.7 316.27-316.5 316.27-174.79 0-316.49-141.6-316.49-316.27v-167.44c0-174.67 141.7-316.27 316.5-316.27s316.5 141.6 316.5 316.27zm-491.92-360.07c-52.35 47.64-85.21 116.3-85.21 192.63v167.44c0 76.33 32.86 145 85.2 192.63a185.56 185.56 0 0 1-10.73-62.4v-427.9c0-21.9 3.79-42.9 10.74-62.4zm305.75 62.4c0-71.93-58.35-130.23-130.32-130.23-71.98 0-130.32 58.3-130.32 130.23v427.9c0 71.92 58.34 130.23 130.32 130.23 71.97 0 130.32-58.3 130.32-130.23zm130.32 130.23c0-76.33-32.86-145-85.21-192.63a185.6 185.6 0 0 1 10.74 62.4v427.9c0 21.89-3.8 42.9-10.74 62.4 52.35-47.64 85.21-116.3 85.21-192.63z"/></defs><g opacity=".1" transform="translate(-643 -2959)"><use fill="#fff" xlink:href="#a"/></g></svg>