<svg xmlns="http://www.w3.org/2000/svg" viewBox="0 0 931.2 399.7"><title>logo</title><g id="Layer_2" data-name="Layer 2"><g id="Layer_1-2" data-name="Layer 1"><path d="M870.9,110.4l60.3,158.5H864.7l-33-86.9-47.6,86.9H762.4l60.3-110.2L762.4.1h66.5l33,86.9L909.4.1h21.7ZM816.2,18.9H789.6l88,231.3h26.6ZM725.8,384.6c8.1,0,12.7-4.8,14.5-12.2h17.1c-2.9,17.6-15.3,27.3-31.8,27.3a31.76,31.76,0,0,1-23.3-9.5,24.2,24.2,0,0,1-7-13c-1-4.8-1.5-12-1.5-21.5s.5-16.6,1.5-21.5a25.21,25.21,0,0,1,7-13,31.76,31.76,0,0,1,23.3-9.5c16.6,0,28.9,9.7,31.8,27.3H740.3c-1.8-7.4-6.4-12.2-14.5-12.2q-6.9,0-10.8,4.5c-3.5,3.8-4.2,7.6-4.2,24.4s.7,20.6,4.2,24.4C717.5,383.2,721.2,384.6,725.8,384.6ZM637.5,268.9A106.22,106.22,0,0,1,531.3,162.6V106.3a106.25,106.25,0,1,1,212.5,0v56.3A106.37,106.37,0,0,1,637.5,268.9ZM578.6,41.7A87.21,87.21,0,0,0,550,106.4v56.3a87.21,87.21,0,0,0,28.6,64.7,63.43,63.43,0,0,1-3.6-21V62.6A60.4,60.4,0,0,1,578.6,41.7ZM696.4,227.4A87.21,87.21,0,0,0,725,162.7V106.4a87.21,87.21,0,0,0-28.6-64.7,63.43,63.43,0,0,1,3.6,21V206.4A63.43,63.43,0,0,1,696.4,227.4ZM681.2,62.6a43.75,43.75,0,1,0-87.5,0V206.3a43.75,43.75,0,1,0,87.5,0Zm-200,336.3-16.9-34.4H452.2v34.4H435.3V312.6h33.8c17.6,0,28,12,28,26.4,0,12.1-7.4,19.6-15.8,22.7l19.3,37.2H481.2Zm-13.1-71.2H452.2v22.8h15.9c7.4,0,12.2-4.7,12.2-11.4S475.5,327.7,468.1,327.7Zm-40.9-58.8L343.7,54V268.9H324.9V.1h66.5L474.9,215V.1h18.8V268.9H427.2Zm-49.1-250H351.5l89.1,231.2h26.6ZM365.6,339c0,12.1-7.4,19.6-15.8,22.7l19.3,37.2H349.6l-16.9-34.4H320.6v34.4H303.7V312.6h33.9C355.1,312.6,365.6,324.6,365.6,339Zm-45-11.3v22.8h15.9c7.4,0,12.2-4.7,12.2-11.4s-4.8-11.4-12.2-11.4H320.6ZM162.5.1h125V18.9H225V125.2h43.8v18.7H225V250.2h62.5v18.7h-125Zm18.7,250h25V18.9h-25ZM0,.1H62.5v250H125v18.8H0Zm18.7,250h25V18.9h-25Zm93.2,77.6H89.3v71.2H72.4V327.6H49.8v-15h62v15.1Zm123,0h-40v20.2H229v15H194.9v21h40v15H178V312.6h56.9Zm367.3-15.1,31.5,86.3H616.1L611,383.6H580.3l-5.2,15.3H557.6L589,312.6Zm4.4,56.9-10.5-31.4-10.9,31.4Zm274.6-41.8h-40v20.2h34.1v15H841.2v21h40v15H824.3V312.6h56.9Z" fill="#1e22aa"/></g></g></svg>