<svg id="Layer_1" data-name="Layer 1" xmlns="http://www.w3.org/2000/svg" viewBox="0 0 1280 800"><title>logo</title><path d="M1045.3,310.5,1105.6,469h-66.5l-33-86.9L958.5,469H936.8l60.3-110.2L936.8,200.2h66.5l33,86.9,47.5-86.9h21.7ZM990.6,219H964l88,231.3h26.6ZM900.2,584.7c8.1,0,12.7-4.8,14.5-12.2h17.1c-2.9,17.6-15.3,27.3-31.8,27.3a31.76,31.76,0,0,1-23.3-9.5,24.2,24.2,0,0,1-7-13c-1-4.8-1.5-12-1.5-21.5s.5-16.6,1.5-21.5a25.21,25.21,0,0,1,7-13,31.76,31.76,0,0,1,23.3-9.5c16.6,0,28.9,9.7,31.8,27.3H914.7c-1.8-7.4-6.4-12.2-14.5-12.2q-6.9,0-10.8,4.5c-3.5,3.8-4.2,7.6-4.2,24.4s.7,20.6,4.2,24.4C891.9,583.3,895.6,584.7,900.2,584.7ZM811.9,469A106.22,106.22,0,0,1,705.7,362.7V306.4a106.25,106.25,0,1,1,212.5,0v56.3A106.37,106.37,0,0,1,811.9,469ZM753,241.8a87.21,87.21,0,0,0-28.6,64.7v56.3A87.21,87.21,0,0,0,753,427.5a63.43,63.43,0,0,1-3.6-21V262.7A60.4,60.4,0,0,1,753,241.8ZM870.8,427.5a87.21,87.21,0,0,0,28.6-64.7V306.5a87.21,87.21,0,0,0-28.6-64.7,63.43,63.43,0,0,1,3.6,21V406.5A63.43,63.43,0,0,1,870.8,427.5ZM855.6,262.7a43.75,43.75,0,1,0-87.5,0V406.4a43.75,43.75,0,1,0,87.5,0ZM655.6,599l-16.9-34.4H626.6V599H609.7V512.7h33.8c17.6,0,28,12,28,26.4,0,12.1-7.4,19.6-15.8,22.7L675,599H655.6Zm-13.1-71.2H626.6v22.8h15.9c7.4,0,12.2-4.7,12.2-11.4S649.9,527.8,642.5,527.8ZM601.6,469,518.1,254.1V469H499.3V200.2h66.5l83.5,214.9V200.2h18.8V469H601.6ZM552.5,219H525.9L615,450.2h26.6ZM540,539.1c0,12.1-7.4,19.6-15.8,22.7L543.5,599H524l-16.9-34.4H495V599H478.1V512.7H512C529.5,512.7,540,524.7,540,539.1Zm-45-11.3v22.8h15.9c7.4,0,12.2-4.7,12.2-11.4s-4.8-11.4-12.2-11.4H495ZM336.9,200.2h125V219H399.4V325.3h43.8V344H399.4V450.3h62.5V469h-125Zm18.7,250h25V219h-25Zm-181.2-250h62.5v250h62.5V469h-125Zm18.7,250h25V219h-25Zm93.2,77.6H263.7V599H246.8V527.7H224.2v-15h62v15.1Zm123,0h-40V548h34.1v15H369.3v21h40v15H352.4V512.7h56.9Zm367.3-15.1L808.1,599H790.5l-5.1-15.3H754.7L749.5,599H732l31.4-86.3Zm4.4,56.9-10.5-31.4-10.9,31.4Zm274.6-41.8h-40V548h34.1v15h-34.1v21h40v15H998.7V512.7h56.9Z" fill="#1e22aa"/></svg>