<svg xmlns="http://www.w3.org/2000/svg" viewBox="0 0 225 250"><title>transportation</title><g id="Layer_2" data-name="Layer 2"><g id="Layer_1-2" data-name="Layer 1"><path d="M175,225a25,25,0,0,1-25,25H75a25,25,0,0,1-25-25A50,50,0,0,1,0,175V50A50,50,0,0,1,50,0H175a50,50,0,0,1,50,50V175A50,50,0,0,1,175,225ZM50,200a25,25,0,1,0-25-25A25,25,0,0,0,50,200ZM25,50v50a25,25,0,0,0,25,25h50V25H50A25,25,0,0,0,25,50Zm175,0a25,25,0,0,0-25-25H125V125h50a25,25,0,0,0,25-25ZM175,150a25,25,0,1,0,25,25A25,25,0,0,0,175,150Z" fill="#1e22aa"/></g></g></svg>