<svg xmlns="http://www.w3.org/2000/svg" xmlns:xlink="http://www.w3.org/1999/xlink" width="23" height="20" viewBox="0 0 23 20"><defs><path id="a" d="M1595.08 38.8a8.2 8.2 0 0 1-2.35.64c.84-.5 1.5-1.3 1.8-2.27a8.2 8.2 0 0 1-2.6 1 4.1 4.1 0 0 0-7 3.74 11.65 11.65 0 0 1-8.45-4.29 4.1 4.1 0 0 0 1.27 5.48c-.68-.02-1.3-.2-1.86-.51a4.1 4.1 0 0 0 3.29 4.07c-.58.16-1.21.2-1.85.07a4.1 4.1 0 0 0 3.83 2.85 8.25 8.25 0 0 1-6.07 1.7 11.61 11.61 0 0 0 6.28 1.84c7.62 0 11.93-6.43 11.67-12.2.8-.58 1.5-1.3 2.04-2.12z"/></defs><g transform="translate(-1574 -35)"><use fill="#fff" xlink:href="#a"/></g></svg>